<?xml version="1.0"?>
<svg xmlns="http://www.w3.org/2000/svg" xmlns:xlink="http://www.w3.org/1999/xlink" width="226" height="204.333344">
	<defs>
		<pattern id="Fill_HP-01" patternTransform="rotate(135)" patternUnits="userSpaceOnUse" width="25" height="25">
			<rect width="25" height="25" fill="#FFFFFF" />
			<path d="M 0 12.5 L 25 12.5" fill="none" stoke-width="5" stroke="#777777" />
		</pattern>
		<marker id="CustomMarker-01" markerUnits="strokeWidth" markerWidth="15.000001" markerHeight="9" viewBox="-15 -4.5 15 9" orient="auto-start-reverse">
			<path d="M 0 -0 L -10 -3, -8 -0.5, -8 0.5, -10 3 Z" fill="#000000" stroke="#000000" stroke-linejoin="round" />
		</marker>
		<marker id="CustomMarker-02" markerUnits="strokeWidth" markerWidth="15.000001" markerHeight="9" viewBox="-15 -4.5 15 9" orient="auto-start-reverse">
			<path d="M 0 -0 L -10 -3, -8 -0.5, -8 0.5, -10 3 Z" fill="#000000" stroke="#000000" stroke-linejoin="round" />
		</marker>
		<marker id="CustomMarker-03" markerUnits="strokeWidth" markerWidth="15.000001" markerHeight="9" viewBox="-15 -4.5 15 9" orient="auto-start-reverse">
			<path d="M 0 -0 L -10 -3, -8 -0.5, -8 0.5, -10 3 Z" fill="#000000" stroke="#000000" stroke-linejoin="round" />
		</marker>
		<marker id="CustomMarker-04" markerUnits="strokeWidth" markerWidth="15.000001" markerHeight="9" viewBox="-15 -4.5 15 9" orient="auto-start-reverse">
			<path d="M 0 -0 L -10 -3, -8 -0.5, -8 0.5, -10 3 Z" fill="#000000" stroke="#000000" stroke-linejoin="round" />
		</marker>
		<marker id="CustomMarker-05" markerUnits="strokeWidth" markerWidth="15.000001" markerHeight="9" viewBox="-15 -4.5 15 9" orient="auto-start-reverse">
			<path d="M 0 -0 L -10 -3, -8 -0.5, -8 0.5, -10 3 Z" fill="#000000" stroke="#000000" stroke-linejoin="round" />
		</marker>
		<marker id="CustomMarker-06" markerUnits="strokeWidth" markerWidth="15.000001" markerHeight="9" viewBox="-15 -4.5 15 9" orient="auto-start-reverse">
			<path d="M 0 -0 L -10 -3, -8 -0.5, -8 0.5, -10 3 Z" fill="#000000" stroke="#000000" stroke-linejoin="round" />
		</marker>
		<marker id="CustomMarker-07" markerUnits="strokeWidth" markerWidth="15.000001" markerHeight="9" viewBox="-15 -4.5 15 9" orient="auto-start-reverse">
			<path d="M 0 -0 L -10 -3, -8 -0.5, -8 0.5, -10 3 Z" fill="#000000" stroke="#000000" stroke-linejoin="round" />
		</marker>
	</defs>
	<path d="M 0 0 L 367.206 0, 0 -208.017 Z" stroke="none" fill="#625535" fill-opacity="0" transform="matrix(0.333333 0 0 0.333333 44.7425 116.452)" />
	<path d="M 0 0 L 367.206 0, 0 -208.017 Z" fill="none" stroke="#000000" stroke-width="3" stroke-linecap="round" stroke-linejoin="round" transform="matrix(0.333333 0 0 0.333333 44.7425 116.452)" />
	<path d="M -13.7331 -50.7919 L 50.7919 -13.7331, 13.7331 50.7919, -50.7919 13.7331 Z" stroke="none" fill="#FFFFFF" transform="matrix(0.333333 0 0 0.333333 68.4395 47.1136)" />
	<path d="M -13.7331 -50.7919 L 50.7919 -13.7331, 13.7331 50.7919, -50.7919 13.7331 Z" fill="none" stroke="#000000" stroke-width="3" stroke-linecap="round" stroke-linejoin="round" transform="matrix(0.333333 0 0 0.333333 68.4395 47.1136)" />
	<rect x="-305.845703" y="0" width="611.691406" height="22.7740784" stroke="none" fill="url(#Fill_HP-01)" transform="matrix(0.333333 0 -0 0.333333 110.705 116.452)" />
	<path d="M -305.846 0 L 305.846 0" fill="none" stroke="#000000" stroke-width="3" stroke-linecap="round" stroke-linejoin="round" transform="matrix(0.333333 0 -0 0.333333 110.705 116.452)" />
	<path d="M -25.6555 44.6703 L 25.6556 -44.6702" fill="none" stroke="#000000" stroke-width="3" stroke-linecap="round" stroke-linejoin="round" marker-end="url(#CustomMarker-01)" transform="matrix(0.333333 0 0 0.333333 76.9913 32.2235)" />
	<g transform="matrix(1 0 -0 1 86.3953 8.52758)">
		<svg width="41.9675598" height="36.1126785">
			<defs />
			<path d="M 12.1287 3.38761 C 12.1144 3.45058, 12.0811 3.50321, 12.0289 3.5464, 11.9767 3.58958, 11.9137 3.61117, 11.8395 3.61072, 11.6618 3.61117, 11.4891 3.62467, 11.3209 3.65076, 11.1526 3.6773, 10.997 3.74072, 10.8535 3.84103, 10.7352 3.91346, 10.6412 4.00837, 10.5719 4.12578, 10.5026 4.24363, 10.4509 4.36913, 10.4162 4.50318 L 8.22963 13.0175 C 8.1752 13.1615, 8.07893 13.2335, 7.94039 13.2335 L 7.7699 13.2335 C 7.68083 13.2335, 7.61426 13.1952, 7.56973 13.1183, 7.01149 11.6123, 6.45685 10.1094, 5.90581 8.60967, 5.35477 7.11039, 4.82712 5.69343, 4.32286 4.35924 L 2.41019 11.794 C 2.3805 11.8759, 2.36565 11.9578, 2.36565 12.0387, 2.36565 12.0729, 2.3706 12.1089, 2.3805 12.1467, 2.39534 12.2623, 2.43988 12.3536, 2.51365 12.4202, 2.60271 12.507, 2.72147 12.5646, 2.86991 12.5934, 3.01836 12.6221, 3.18614 12.6365, 3.37372 12.6361, 3.51227 12.6365, 3.58154 12.6941, 3.58154 12.8088, 3.58154 12.8381, 3.57659 12.8691, 3.5667 12.9024 L 3.53701 13.0104 C 3.52217 13.0778, 3.48618 13.1318, 3.4295 13.1723, 3.37282 13.2132, 3.31209 13.2335, 3.24777 13.2335, 2.75386 13.2047, 2.2523 13.1903, 1.74309 13.1903, 1.23928 13.1903, 0.730076 13.2047, 0.215922 13.2335, 0.1417 13.2335, 0.0872704 13.2119, 0.0526336 13.1687, 0.0184466 13.1354, 0.00135307 13.0994, 0.000903238 13.0607, 0.00135307 13.0324, 0.00630119 13.0036, 0.0157476 12.9744 L 0.0454363 12.8664 C 0.0602807 12.8043, 0.0949175 12.7508, 0.149347 12.7049, 0.203776 12.6595, 0.265403 12.6365, 0.334227 12.6361, 0.522255 12.6365, 0.698138 12.6221, 0.860976 12.5934, 1.02381 12.5646, 1.17946 12.5047, 1.3279 12.413, 1.44171 12.3415, 1.53302 12.247, 1.60229 12.1291, 1.67157 12.0117, 1.72555 11.8858, 1.76513 11.7508 L 3.84064 3.68269 C 3.75698 3.65436, 3.60493 3.63546, 3.38497 3.62557, 3.165 3.61612, 2.93154 3.61117, 2.68413 3.61072, 2.61036 3.61117, 2.55593 3.58733, 2.5213 3.53875, 2.49161 3.51041, 2.47676 3.47442, 2.47676 3.43079, 2.47676 3.40245, 2.48441 3.37591, 2.4988 3.35162 L 2.5213 3.23646 C 2.57572 3.09297, 2.67199 3.021, 2.81054 3.02055 L 5.13075 3.02055 C 5.22477 3.021, 5.28639 3.05923, 5.31608 3.1357 L 8.14056 10.7504, 9.76399 4.46 C 9.79368 4.37408, 9.80853 4.28771, 9.80853 4.2009, 9.80853 4.05245, 9.76174 3.9301, 9.66773 3.83384, 9.56427 3.73353, 9.44192 3.67145, 9.30067 3.64716, 9.15987 3.62332, 8.99568 3.61117, 8.80766 3.61072, 8.73388 3.61117, 8.67945 3.58958, 8.64437 3.54595, 8.61018 3.51266, 8.59264 3.47442, 8.59264 3.43079, 8.59264 3.40245, 8.60029 3.37591, 8.61468 3.35162 L 8.63717 3.23646 C 8.6916 3.09297, 8.78786 3.021, 8.92641 3.02055, 9.43067 3.04034, 9.93718 3.04978, 10.4459 3.04933, 10.9502 3.04978, 11.4567 3.04034, 11.9655 3.02055, 12.0347 3.021, 12.0941 3.04484, 12.1436 3.09252, 12.1634 3.1312, 12.1733 3.16719, 12.1733 3.20048, 12.1733 3.22972, 12.1661 3.25626, 12.1508 3.27965 Z" stroke="none" fill="#000000" />
			<rect />
		</svg>
	</g>
	<g transform="matrix(1 0 -0 1 37.2757 23.4177)">
		<svg width="27.0810776" height="48.1735878">
			<defs />
			<path d="M 7.34796 3.97058 C 7.29353 4.182, 7.18242 4.34439, 7.01419 4.45685, 6.8464 4.56976, 6.68086 4.62599, 6.51757 4.62554, 6.33989 4.62599, 6.1964 4.56346, 6.08754 4.43841, 6.00387 4.35744, 5.95934 4.25398, 5.95394 4.12892, 5.95394 4.07674, 5.96384 4.00927, 5.98363 3.9274, 6.03851 3.74567, 6.13117 3.60172, 6.26207 3.49601, 6.39297 3.39075, 6.49059 3.33273, 6.55446 3.32283, 6.4609 3.21757, 6.27557 3.16494, 5.99847 3.16449, 5.83563 3.16494, 5.67999 3.30664, 5.53155 3.58913, 5.50186 3.63276, 5.46857 3.72993, 5.43169 3.88107, 5.3948 4.03221, 5.35252 4.21709, 5.30574 4.43526, 5.25895 4.65388, 5.21037 4.88509, 5.16089 5.12979, 5.11141 5.3745, 5.06688 5.60976, 5.02729 5.83468 L 4.84196 6.74873, 6.19865 6.74873 C 6.3273 6.74918, 6.39162 6.81395, 6.39162 6.94306 L 6.39162 6.99344, 6.36193 7.12299 C 6.3075 7.26738, 6.21124 7.33935, 6.07269 7.33891 L 4.72366 7.33891, 4.01203 10.9231 C 3.94275 11.2596, 3.86898 11.6181, 3.78981 11.9996, 3.71064 12.381, 3.62427 12.7602, 3.53026 13.1368, 3.43625 13.5133, 3.32874 13.8695, 3.20773 14.2051, 3.08673 14.5411, 2.95673 14.834, 2.81818 15.0832, 2.73451 15.2226, 2.63915 15.363, 2.53299 15.5042, 2.42683 15.6459, 2.30987 15.7719, 2.18122 15.8821, 2.05257 15.9927, 1.91312 16.0849, 1.76198 16.1592, 1.61129 16.2338, 1.44935 16.2707, 1.27662 16.2707, 1.08409 16.2707, 0.903708 16.2397, 0.735472 16.1771, 0.567686 16.1151, 0.423291 16.0287, 0.301837 15.918, 0.181283 15.8078, 0.0908669 15.6733, 0.0310397 15.515, 0.0116971 15.4286, 0.00180078 15.3423, 0.001351 15.2559, 0.00180078 15.1745, 0.0116971 15.0859, 0.0310397 14.9896, 0.0859189 14.7737, 0.199726 14.6117, 0.37246 14.5038, 0.545644 14.3958, 0.716129 14.3418, 0.883466 14.3418, 1.0571 14.3418, 1.20015 14.3994, 1.3135 14.5146, 1.39762 14.5964, 1.43945 14.6995, 1.43945 14.8241, 1.43945 14.8771, 1.42956 14.9442, 1.40977 15.0256, 1.35579 15.2082, 1.26177 15.3544, 1.12862 15.4646, 0.995473 15.5753, 0.896511 15.6351, 0.831735 15.6445, 0.916303 15.7408, 1.08904 15.7885, 1.35039 15.7885, 1.47904 15.7885, 1.59914 15.7165, 1.71025 15.5726, 1.82136 15.4286, 1.91133 15.2321, 1.9806 14.9824, 2.15378 14.3972, 2.31077 13.7485, 2.45157 13.036, 2.59237 12.3235, 2.73181 11.6289, 2.87036 10.9519 L 3.60403 7.33891, 2.49205 7.33891 C 2.41828 7.33935, 2.36385 7.31551, 2.32922 7.26693, 2.29953 7.23859, 2.28468 7.20261, 2.28468 7.15897, 2.28468 7.13063, 2.29233 7.10409, 2.30673 7.0798 L 2.32922 6.97184 C 2.34406 6.90977, 2.37735 6.85714, 2.42908 6.81395, 2.48126 6.77077, 2.53659 6.74918, 2.59597 6.74873 L 3.72279 6.74873, 3.89327 5.84907 C 3.92296 5.66239, 3.96255 5.45637, 4.01203 5.23056, 4.06151 5.00519, 4.12044 4.78073, 4.18971 4.55761, 4.25898 4.3345, 4.33725 4.11993, 4.42362 3.91346, 4.50999 3.70743, 4.61525 3.532, 4.7385 3.38761, 4.91663 3.18158, 5.12176 3.0129, 5.35387 2.88065, 5.58598 2.74885, 5.83069 2.68272, 6.08754 2.68227, 6.28052 2.68272, 6.4645 2.71151, 6.63993 2.76909, 6.81536 2.82667, 6.96381 2.91079, 7.08481 3.021, 7.20581 3.13165, 7.29083 3.26345, 7.34031 3.4164, 7.37495 3.49377, 7.39204 3.58238, 7.39204 3.68269, 7.39204 3.76456, 7.37765 3.86083, 7.34796 3.97058 Z" stroke="none" fill="#000000" />
			<rect />
		</svg>
	</g>
	<path d="M 32.2626 18.2762 L -32.2625 -18.2762" fill="none" stroke="#000000" stroke-width="3" stroke-linecap="round" stroke-linejoin="round" marker-end="url(#CustomMarker-02)" transform="matrix(0.333333 0 0 0.333333 57.6853 41.0216)" />
	<path d="M 0 -63.2108 L 0 63.2108" fill="none" stroke="#000000" stroke-width="3" stroke-linecap="round" stroke-linejoin="round" marker-end="url(#CustomMarker-03)" transform="matrix(0.333333 0 0 0.333333 68.4395 68.1839)" />
	<g transform="matrix(1 0 -0 1 59.0435 84.5337)">
		<svg width="59.918911" height="36.1126785">
			<defs />
			<path d="M 11.6694 11.0599 C 11.61 11.3145, 11.5214 11.5799, 11.4026 11.8556, 11.2839 12.1318, 11.1417 12.3824, 10.9762 12.6078, 10.8107 12.8336, 10.6168 13.0216, 10.3946 13.1723, 10.1724 13.3234, 9.91505 13.399, 9.62311 13.399, 9.37616 13.399, 9.16384 13.3464, 8.98571 13.2407, 8.80802 13.1354, 8.67352 12.9964, 8.58176 12.8237, 8.49044 12.6509, 8.43961 12.4494, 8.42972 12.2187 L 8.42972 12.1611 C 8.42972 11.9551, 8.472 11.7463, 8.55567 11.5349, 8.71896 11.113, 8.86965 10.6933, 9.0082 10.2758, 9.14674 9.8584, 9.2727 9.43871, 9.38605 9.01587, 9.46522 8.73787, 9.51965 8.46708, 9.54934 8.20258, 9.55924 8.136, 9.56419 8.06403, 9.56419 7.98666, 9.56419 7.81932, 9.53944 7.66098, 9.48996 7.51164, 9.4009 7.2098, 9.21332 7.05866, 8.92633 7.05821, 8.42252 7.05866, 7.98753 7.23275, 7.62182 7.58046, 7.25611 7.92863, 6.93718 8.39016, 6.66549 8.96549, 6.51255 9.61864, 6.34926 10.27, 6.17607 10.92, 6.00334 11.5704, 5.83285 12.2191, 5.66462 12.8664, 5.62053 13.0445, 5.52922 13.1772, 5.39067 13.2659, 5.25212 13.3549, 5.11628 13.399, 4.98268 13.399, 4.83963 13.399, 4.72088 13.3513, 4.62686 13.2551, 4.56299 13.193, 4.52835 13.1066, 4.52295 12.996, 4.52295 12.9438, 4.5279 12.8907, 4.5378 12.8376 L 5.53102 9.01587 C 5.61019 8.73787, 5.66462 8.46708, 5.69431 8.20258 L 5.69431 7.98666 C 5.69431 7.81437, 5.67451 7.65603, 5.63493 7.51164, 5.54631 7.2098, 5.35873 7.05866, 5.07174 7.05821, 4.56793 7.05866, 4.13295 7.23275, 3.76724 7.58046, 3.40153 7.92863, 3.08035 8.39016, 2.80325 8.96549 L 1.78754 12.8664 C 1.74346 13.0445, 1.65304 13.1772, 1.51719 13.2659, 1.38134 13.3549, 1.24415 13.399, 1.1056 13.399, 0.957606 13.399, 0.843799 13.3513, 0.764629 13.2551, 0.700753 13.193, 0.668366 13.1066, 0.668366 12.996, 0.668366 12.9532, 0.673314 12.9006, 0.68321 12.8376 L 1.82443 8.38251 C 1.9036 8.07123, 1.94318 7.80223, 1.94318 7.57642 L 1.94318 7.40368 C 1.91889 7.17382, 1.80283 7.05866, 1.59501 7.05821, 1.3773 7.05866, 1.19557 7.2341, 1.04982 7.58406, 0.904076 7.93448, 0.76238 8.39016, 0.623833 8.95109, 0.569403 9.08109, 0.478088 9.14812, 0.349437 9.15262 L 0.178952 9.15262 C 0.0601968 9.15307, 0.000819415 9.09324, 0.000819415 8.97268 L 0.000819415 8.9223 C 0.0601968 8.69739, 0.127221 8.45133, 0.201443 8.18503, 0.275665 7.91874, 0.374627 7.66683, 0.497881 7.42932, 0.621584 7.19181, 0.777224 6.99029, 0.964803 6.82475, 1.15283 6.65921, 1.38719 6.57645, 1.66879 6.57599, 2.07453 6.57645, 2.39346 6.6988, 2.62557 6.94351, 2.85768 7.18821, 2.97869 7.42572, 2.98858 7.65558, 3.19641 7.38254, 3.4852 7.13423, 3.85585 6.91112, 4.22651 6.688, 4.65655 6.57645, 5.14551 6.57599, 5.44735 6.57645, 5.72444 6.63042, 5.97635 6.73838, 6.22825 6.84634, 6.42348 7.02043, 6.56158 7.25974, 6.68033 7.46666, 6.74466 7.63939, 6.75455 7.77794, 6.97227 7.47116, 7.27366 7.19451, 7.65916 6.9471, 8.04466 6.70015, 8.49674 6.57645, 9.01539 6.57599, 9.30688 6.57645, 9.57903 6.63042, 9.83093 6.73838, 10.0828 6.84634, 10.2808 7.02043, 10.4238 7.25974, 10.5723 7.50489, 10.6442 7.78064, 10.6388 8.08742 L 10.6388 8.12341 C 10.6289 8.43109, 10.5848 8.74057, 10.5057 9.05185, 10.3919 9.48909, 10.261 9.91867, 10.1125 10.3406, 9.96453 10.763, 9.80889 11.1899, 9.6456 11.6213, 9.49716 12.0104, 9.42294 12.3365, 9.42294 12.6001, 9.42294 12.8165, 9.51695 12.9244, 9.70498 12.924, 9.87322 12.9244, 10.0248 12.8741, 10.1607 12.7733, 10.2965 12.6725, 10.4202 12.5371, 10.5313 12.3666, 10.6429 12.1966, 10.7427 11.9951, 10.8318 11.7621, 10.9209 11.5295, 10.9996 11.2835, 11.0689 11.0239, 11.0986 10.8998, 11.1854 10.8372, 11.3284 10.8368 L 11.4913 10.8368 C 11.5461 10.8372, 11.6028 10.8539, 11.6617 10.8872, 11.6815 10.9308, 11.6914 10.9668, 11.6914 10.9951, 11.6914 11.0149, 11.6842 11.0365, 11.6694 11.0599 Z" stroke="none" fill="#000000" />
			<path d="M 17.0335 14.1331 C 16.9498 14.4453, 16.805 14.7332, 16.5999 14.9968, 16.3947 15.2608, 16.1563 15.4862, 15.8846 15.6733, 15.6129 15.8605, 15.3143 16.0071, 14.9881 16.1124, 14.662 16.2181, 14.3359 16.2707, 14.0093 16.2707, 13.7871 16.2707, 13.55 16.2613, 13.2981 16.2419, 13.0462 16.223, 12.8177 16.1762, 12.6126 16.1016, 12.4075 16.0274, 12.2532 15.9108, 12.1493 15.7525, 12.0701 15.6567, 12.0282 15.5343, 12.0233 15.3854, 12.0233 15.3135, 12.0332 15.2298, 12.053 15.1335, 12.1074 14.9176, 12.2185 14.757, 12.3863 14.6513, 12.5546 14.5461, 12.7223 14.493, 12.8901 14.493, 13.0633 14.493, 13.2068 14.5483, 13.3202 14.6585, 13.4043 14.7404, 13.4461 14.8457, 13.4461 14.9752, 13.4461 15.0283, 13.4362 15.0904, 13.4164 15.1623, 13.3822 15.3162, 13.3179 15.4421, 13.2239 15.5402, 13.1303 15.6387, 13.0782 15.6877, 13.0683 15.6877, 13.0979 15.7021, 13.2131 15.7228, 13.4128 15.7489, 13.613 15.7754, 13.8393 15.7885, 14.0912 15.7885, 14.2936 15.7885, 14.4902 15.7444, 14.6804 15.6553, 14.8707 15.5667, 15.0475 15.443, 15.2103 15.2847, 15.3732 15.1263, 15.5167 14.9464, 15.6399 14.7449, 15.7636 14.5434, 15.8549 14.3301, 15.9143 14.1043 L 16.307 12.5641 C 16.1937 12.6748, 15.9908 12.8142, 15.6993 12.982, 15.4078 13.1502, 15.1042 13.2335, 14.7875 13.2335, 14.4074 13.2335, 14.0804 13.1395, 13.806 12.9496, 13.5316 12.7602, 13.3202 12.5164, 13.1717 12.2187, 12.994 11.8736, 12.9 11.4994, 12.8901 11.0959 L 12.8901 11.0095 C 12.8901 10.6407, 12.9396 10.2664, 13.0386 9.88674, 13.1425 9.4648, 13.3031 9.0586, 13.5203 8.66725, 13.7381 8.27635, 14.0219 7.91019, 14.3728 7.56922, 14.6593 7.28178, 14.9841 7.04427, 15.3471 6.85714, 15.7106 6.67001, 16.0799 6.57645, 16.4555 6.57599, 16.7766 6.57645, 17.0438 6.66191, 17.2562 6.83195, 17.4685 7.00243, 17.6043 7.14503, 17.6633 7.25974 L 17.6264 7.39648 C 17.6709 7.21925, 17.7609 7.08745, 17.8967 7.00108, 18.0326 6.91472, 18.1698 6.87153, 18.3083 6.87108, 18.4518 6.87153, 18.5706 6.91697, 18.6641 7.00783, 18.7285 7.07081, 18.7604 7.15717, 18.7604 7.26693, 18.7604 7.32001, 18.7554 7.37309, 18.7455 7.42527 Z M 17.3817 8.36092 C 17.3718 8.27005, 17.3569 8.18143, 17.3371 8.09507, 17.3173 8.0087, 17.2953 7.92233, 17.2706 7.83552, 17.1914 7.6106, 17.0789 7.42482, 16.9332 7.27818, 16.7874 7.13198, 16.6035 7.05866, 16.3812 7.05821, 16.1739 7.05866, 15.9688 7.13333, 15.7663 7.28178, 15.5639 7.43067, 15.3786 7.6178, 15.2103 7.84271, 14.9832 8.15489, 14.8104 8.48732, 14.6917 8.83998, 14.5729 9.19265, 14.4618 9.55116, 14.3579 9.91553, 14.2688 10.2902, 14.1924 10.655, 14.1281 11.0095, 14.0885 11.1827, 14.0687 11.3505, 14.0687 11.5133, 14.0687 11.6865, 14.0885 11.852, 14.1281 12.0099, 14.1726 12.2263, 14.2567 12.4062, 14.38 12.5502, 14.5037 12.6941, 14.6692 12.7661, 14.8766 12.7656, 15.1042 12.7661, 15.3313 12.6883, 15.5585 12.5322, 15.7861 12.3765, 15.9984 12.1881, 16.1959 11.9667, 16.3394 11.7994, 16.4753 11.6168, 16.6035 11.4198 L 17.3817 8.36092 Z" stroke="none" fill="#000000" />
			<rect />
		</svg>
	</g>
	<path d="M 27.7578 -49 L -27.7578 48.9999" fill="none" stroke="#000000" stroke-width="3" stroke-linecap="round" stroke-linejoin="round" marker-end="url(#CustomMarker-04)" transform="matrix(0.333333 0 0 0.333333 88.8909 109.673)" />
	<g transform="matrix(1 0 -0 1 69.1765 123.546)">
		<svg width="50.9432373" height="39.1827278">
			<defs />
			<path d="M 12.1229 3.38761 C 12.1085 3.45058, 12.0752 3.50321, 12.023 3.5464, 11.9713 3.58958, 11.9083 3.61117, 11.8341 3.61072, 11.6564 3.61117, 11.4837 3.62467, 11.3155 3.65076, 11.1472 3.6773, 10.9916 3.74072, 10.8481 3.84103, 10.7298 3.91346, 10.6362 4.00837, 10.5669 4.12578, 10.4977 4.24363, 10.4459 4.36913, 10.4108 4.50318 L 8.22468 13.0175 C 8.1707 13.1615, 8.07398 13.2335, 7.93544 13.2335 L 7.76495 13.2335 C 7.67634 13.2335, 7.60976 13.1952, 7.56478 13.1183, 7.00654 11.6123, 6.4519 10.1094, 5.90086 8.60967, 5.35027 7.11039, 4.82262 5.69343, 4.31881 4.35924 L 2.40659 11.794 C 2.3769 11.8759, 2.36205 11.9578, 2.36205 12.0387, 2.36205 12.0729, 2.367 12.1089, 2.3769 12.1467, 2.39174 12.2623, 2.43628 12.3536, 2.51005 12.4202, 2.59911 12.507, 2.71787 12.5646, 2.86586 12.5934, 3.01431 12.6221, 3.18209 12.6365, 3.37012 12.6361, 3.50867 12.6365, 3.57749 12.6941, 3.57749 12.8088, 3.57749 12.8381, 3.57255 12.8691, 3.56265 12.9024 L 3.53296 13.0104 C 3.51857 13.0778, 3.48258 13.1318, 3.4259 13.1723, 3.36922 13.2132, 3.3085 13.2335, 3.24417 13.2335, 2.75026 13.2047, 2.2487 13.1903, 1.73949 13.1903, 1.23568 13.1903, 0.726476 13.2047, 0.212772 13.2335, 0.13855 13.2335, 0.0841205 13.2119, 0.0494837 13.1687, 0.0152967 13.1354, -0.0017968 13.0994, -0.00224663 13.0607, -0.0017968 13.0324, 0.00315132 13.0036, 0.0125977 12.9744 L 0.0422864 12.8664 C 0.0571308 12.8043, 0.0917676 12.7508, 0.146197 12.7049, 0.200626 12.6595, 0.262253 12.6365, 0.331077 12.6361, 0.519105 12.6365, 0.694539 12.6221, 0.857377 12.5934, 1.02066 12.5646, 1.17631 12.5047, 1.3243 12.413, 1.43811 12.3415, 1.52942 12.247, 1.5987 12.1291, 1.66797 12.0117, 1.72195 11.8858, 1.76153 11.7508 L 3.83704 3.68269 C 3.75338 3.65436, 3.60133 3.63546, 3.38137 3.62557, 3.1614 3.61612, 2.92794 3.61117, 2.68053 3.61072, 2.60676 3.61117, 2.55233 3.58733, 2.5177 3.53875, 2.48801 3.51041, 2.47316 3.47442, 2.47316 3.43079, 2.47316 3.40245, 2.48081 3.37591, 2.4952 3.35162 L 2.5177 3.23646 C 2.57213 3.09297, 2.66839 3.021, 2.80649 3.02055 L 5.1267 3.02055 C 5.22072 3.021, 5.28235 3.05923, 5.31158 3.1357 L 8.13561 10.7504, 9.75859 4.46 C 9.78828 4.37408, 9.80313 4.28771, 9.80313 4.2009, 9.80313 4.05245, 9.75634 3.9301, 9.66233 3.83384, 9.55887 3.73353, 9.43652 3.67145, 9.29572 3.64716, 9.15492 3.62332, 8.99074 3.61117, 8.80271 3.61072, 8.72894 3.61117, 8.67451 3.58958, 8.63942 3.54595, 8.60523 3.51266, 8.58769 3.47442, 8.58769 3.43079, 8.58769 3.40245, 8.59534 3.37591, 8.61018 3.35162 L 8.63222 3.23646 C 8.68665 3.09297, 8.78291 3.021, 8.92146 3.02055, 9.42527 3.04034, 9.93178 3.04978, 10.4405 3.04933, 10.9448 3.04978, 11.4513 3.04034, 11.9601 3.02055, 12.0293 3.021, 12.0887 3.04484, 12.1377 3.09252, 12.1575 3.1312, 12.1674 3.16719, 12.1674 3.20048, 12.1674 3.22972, 12.1602 3.25626, 12.1454 3.27965 Z" stroke="none" fill="#000000" />
			<path d="M 13.7641 7.95067 C 13.7245 8.06133, 13.6579 8.11666, 13.5639 8.11621 L 13.5045 8.11621, 13.46 8.09462 C 13.3664 8.07123, 13.3143 8.00645, 13.3044 7.90029 L 13.3044 7.84991, 14.0529 3.20767 C 14.088 2.98726, 14.1928 2.82082, 14.3682 2.70791, 14.5436 2.59546, 14.7204 2.53878, 14.8981 2.53833, 15.0911 2.53878, 15.2467 2.59861, 15.365 2.71826, 15.4397 2.79068, 15.4766 2.8865, 15.4766 3.00615, 15.4766 3.09297, 15.4545 3.19373, 15.4096 3.30844 Z" stroke="none" fill="#000000" />
			<rect />
		</svg>
	</g>
	<path d="M 0 87.8683 L 0 -87.8683" fill="none" stroke="#000000" stroke-width="3" stroke-linecap="round" stroke-linejoin="round" marker-end="url(#CustomMarker-05)" transform="matrix(0.333333 0 0 0.333333 98.1435 64.0501)" />
	<path d="M -35.3341 -20.2936 L 35.3342 20.2935" fill="none" stroke="#000000" stroke-width="3" stroke-linecap="round" stroke-linejoin="round" marker-end="url(#CustomMarker-06)" transform="matrix(0.333333 0 0 0.333333 109.922 100.104)" />
	<g transform="matrix(1 0 -0 1 122.743 97.6633)">
		<svg width="36.0567513" height="48.1735878">
			<defs />
			<path d="M 7.34099 3.97058 C 7.28701 4.182, 7.1759 4.34439, 7.00767 4.45685, 6.83943 4.56976, 6.67389 4.62599, 6.5106 4.62554, 6.33292 4.62599, 6.18988 4.56346, 6.08102 4.43841, 5.99735 4.35744, 5.95282 4.25398, 5.94742 4.12892, 5.94742 4.07674, 5.95731 4.00927, 5.97711 3.9274, 6.03154 3.74567, 6.1242 3.60172, 6.2551 3.49601, 6.38645 3.39075, 6.48406 3.33273, 6.54794 3.32283, 6.45438 3.21757, 6.26905 3.16494, 5.99195 3.16449, 5.82911 3.16494, 5.67347 3.30664, 5.52503 3.58913, 5.49534 3.63276, 5.46205 3.72993, 5.42517 3.88107, 5.38828 4.03221, 5.346 4.21709, 5.29921 4.43526, 5.25243 4.65388, 5.20385 4.88509, 5.15437 5.12979, 5.10489 5.3745, 5.06081 5.60976, 5.02122 5.83468 L 4.83589 6.74873, 6.19212 6.74873 C 6.32078 6.74918, 6.38465 6.81395, 6.38465 6.94306 L 6.38465 6.99344, 6.35496 7.12299 C 6.30098 7.26738, 6.20472 7.33935, 6.06617 7.33891 L 4.71714 7.33891, 4.00551 10.9231 C 3.93668 11.2596, 3.86246 11.6181, 3.78329 11.9996, 3.70412 12.381, 3.61775 12.7602, 3.52374 13.1368, 3.43017 13.5133, 3.32267 13.8695, 3.20166 14.2051, 3.08066 14.5411, 2.95111 14.834, 2.81256 15.0832, 2.72889 15.2226, 2.63353 15.363, 2.52737 15.5042, 2.42121 15.6459, 2.3038 15.7719, 2.17515 15.8821, 2.0465 15.9927, 1.90705 16.0849, 1.75636 16.1592, 1.60567 16.2338, 1.44373 16.2707, 1.27055 16.2707, 1.07847 16.2707, 0.898087 16.2397, 0.729851 16.1771, 0.562065 16.1151, 0.417669 16.0287, 0.296216 15.918, 0.175661 15.8078, 0.0852456 15.6733, 0.0254184 15.515, 0.00652552 15.4286, -0.00337064 15.3423, -0.00382054 15.2559, -0.00337064 15.1745, 0.00652552 15.0859, 0.0254184 14.9896, 0.0802976 14.7737, 0.194104 14.6117, 0.366839 14.5038, 0.540023 14.3958, 0.710508 14.3418, 0.877845 14.3418, 1.05148 14.3418, 1.19452 14.3994, 1.30788 14.5146, 1.392 14.5964, 1.43383 14.6995, 1.43383 14.8241, 1.43383 14.8771, 1.42394 14.9442, 1.40414 15.0256, 1.35017 15.2082, 1.25615 15.3544, 1.123 15.4646, 0.989852 15.5753, 0.89089 15.6351, 0.826114 15.6445, 0.910682 15.7408, 1.08342 15.7885, 1.34477 15.7885, 1.47342 15.7885, 1.59352 15.7165, 1.70463 15.5726, 1.81574 15.4286, 1.9057 15.2321, 1.97498 14.9824, 2.14771 14.3972, 2.3047 13.7485, 2.4455 13.036, 2.58675 12.3235, 2.72619 11.6289, 2.86429 10.9519 L 3.59796 7.33891, 2.48643 7.33891 C 2.41221 7.33935, 2.35778 7.31551, 2.32315 7.26693, 2.29346 7.23859, 2.27861 7.20261, 2.27861 7.15897, 2.27861 7.13063, 2.28626 7.10409, 2.3011 7.0798 L 2.32315 6.97184 C 2.33844 6.90977, 2.37173 6.85714, 2.42346 6.81395, 2.47564 6.77077, 2.53097 6.74918, 2.58989 6.74873 L 3.71672 6.74873, 3.8872 5.84907 C 3.91689 5.66239, 3.95647 5.45637, 4.00596 5.23056, 4.05544 5.00519, 4.11436 4.78073, 4.18364 4.55761, 4.25291 4.3345, 4.33073 4.11993, 4.4171 3.91346, 4.50347 3.70743, 4.60873 3.532, 4.73198 3.38761, 4.91011 3.18158, 5.11523 3.0129, 5.34735 2.88065, 5.57946 2.74885, 5.82416 2.68272, 6.08102 2.68227, 6.27354 2.68272, 6.45752 2.71151, 6.63296 2.76909, 6.80839 2.82667, 6.95683 2.91079, 7.07784 3.021, 7.19929 3.13165, 7.28431 3.26345, 7.33334 3.4164, 7.36843 3.49377, 7.38552 3.58238, 7.38552 3.68269, 7.38552 3.76456, 7.37068 3.86083, 7.34099 3.97058 Z" stroke="none" fill="#000000" />
			<path d="M 8.9833 7.95067 C 8.94372 8.06133, 8.87714 8.11666, 8.78313 8.11621 L 8.72375 8.11621, 8.67922 8.09462 C 8.58565 8.07123, 8.53347 8.00645, 8.52358 7.90029 L 8.52358 7.84991, 9.27254 3.20767 C 9.30718 2.98726, 9.41199 2.82082, 9.58742 2.70791, 9.76285 2.59546, 9.93964 2.53878, 10.1173 2.53833, 10.3098 2.53878, 10.4655 2.59861, 10.5842 2.71826, 10.6585 2.79068, 10.6954 2.8865, 10.6954 3.00615, 10.6954 3.09297, 10.6733 3.19373, 10.6288 3.30844 Z" stroke="none" fill="#000000" />
			<rect />
		</svg>
	</g>
	<path d="M 0 -58.2838 L 0 58.2836" fill="none" stroke="#000000" stroke-width="3" stroke-linecap="round" stroke-linejoin="round" marker-end="url(#CustomMarker-07)" transform="matrix(0.333333 0 0 0.333333 98.1435 112.767)" />
	<g transform="matrix(1 0 -0 1 92.5394 130.742)">
		<svg width="66.0486374" height="45.1035385">
			<defs />
			<path d="M 14.3301 3.38761 C 14.3009 3.53695, 14.2096 3.61117, 14.0562 3.61072, 13.8241 3.61117, 13.6041 3.61612, 13.3963 3.62557, 13.1889 3.63546, 13.0382 3.66065, 12.9442 3.70114, 12.8506 3.74207, 12.7764 3.86802, 12.7215 4.07854 L 10.6384 12.1899 C 10.6087 12.296, 10.5938 12.3797, 10.5938 12.4418, 10.5938 12.4998, 10.6087 12.5358, 10.6384 12.5497, 10.7077 12.5934, 10.8426 12.6185, 11.0428 12.6257, 11.2429 12.6329, 11.4593 12.6365, 11.6914 12.6361, 11.83 12.6365, 11.8988 12.6941, 11.8988 12.8088, 11.8988 12.8381, 11.8938 12.8691, 11.884 12.9024 L 11.8543 13.0104 C 11.8399 13.0733, 11.8066 13.126, 11.7544 13.1687, 11.7027 13.2119, 11.6419 13.2335, 11.5727 13.2335, 10.9847 13.2047, 10.3869 13.1903, 9.77875 13.1903, 9.17103 13.1903, 8.55837 13.2047, 7.9403 13.2335, 7.81165 13.2335, 7.74733 13.1714, 7.74733 13.0463 L 7.74733 12.9888, 7.77701 12.8664 C 7.8166 12.7085, 7.91331 12.6316, 8.06625 12.6361, 8.29837 12.6365, 8.51608 12.6329, 8.71851 12.6257, 8.92138 12.6185, 9.07207 12.5934, 9.17058 12.5497, 9.25965 12.502, 9.33162 12.3725, 9.3856 12.1611 L 11.4688 4.12173, 5.9606 13.0319 C 5.88683 13.1664, 5.77303 13.2335, 5.61963 13.2335 L 5.54586 13.2335 C 5.39292 13.2335, 5.30116 13.157, 5.27147 13.0032 L 4.37451 4.2009, 2.42495 11.794 C 2.39526 11.8808, 2.38041 11.9721, 2.38041 12.0675, 2.38041 12.0918, 2.38536 12.1183, 2.39526 12.1467, 2.40516 12.2623, 2.44474 12.3536, 2.51356 12.4202, 2.60263 12.507, 2.72139 12.5646, 2.86983 12.5934, 3.01827 12.6221, 3.18606 12.6365, 3.37364 12.6361, 3.51218 12.6365, 3.58101 12.6941, 3.58101 12.8088, 3.58101 12.8381, 3.57606 12.8691, 3.56616 12.9024 L 3.53693 13.0104 C 3.52208 13.0733, 3.48879 13.126, 3.43661 13.1687, 3.38488 13.2119, 3.32191 13.2335, 3.24769 13.2335, 2.75377 13.2047, 2.25446 13.1903, 1.7502 13.1903, 1.2464 13.1903, 0.73494 13.2047, 0.215837 13.2335, 0.141616 13.2335, 0.0871864 13.2119, 0.0525495 13.1687, 0.0183625 13.1354, 0.000819194 13.0994, 0.000819194 13.0607, 0.000819194 13.0324, 0.00576731 13.0036, 0.0156636 12.9744 L 0.0449024 12.8664 C 0.0844874 12.7085, 0.181201 12.6316, 0.334143 12.6361, 0.522171 12.6365, 0.698954 12.6221, 0.864491 12.5934, 1.03003 12.5646, 1.18477 12.5047, 1.32781 12.413, 1.44162 12.3415, 1.53429 12.247, 1.60581 12.1291, 1.67733 12.0117, 1.73041 11.8858, 1.76505 11.7508 L 3.75149 4.04976 C 3.78118 3.94449, 3.79603 3.86308, 3.79603 3.80505, 3.79603 3.74792, 3.78388 3.71418, 3.75914 3.70429, 3.68987 3.66155, 3.55537 3.63546, 3.35519 3.62557, 3.15502 3.61612, 2.93865 3.61117, 2.70654 3.61072, 2.57339 3.61117, 2.50142 3.5464, 2.49152 3.4164 L 2.49152 3.36601, 2.52121 3.23646 C 2.57564 3.09297, 2.6719 3.021, 2.81 3.02055 L 5.21209 3.02055 C 5.37043 3.021, 5.45904 3.09792, 5.47884 3.25086 L 6.32407 11.4773, 11.4242 3.22207 C 11.4985 3.08802, 11.6123 3.021, 11.7652 3.02055 L 14.1673 3.02055 C 14.2366 3.021, 14.2959 3.04484, 14.345 3.09252, 14.3648 3.1312, 14.3747 3.16719, 14.3747 3.20048, 14.3747 3.22972, 14.3675 3.25626, 14.3526 3.27965 Z" stroke="none" fill="#000000" />
			<path d="M 18.3218 14.1331 C 18.2381 14.4453, 18.0933 14.7332, 17.8882 14.9968, 17.6831 15.2608, 17.4446 15.4862, 17.1729 15.6733, 16.9012 15.8605, 16.6026 16.0071, 16.2764 16.1124, 15.9503 16.2181, 15.6242 16.2707, 15.2976 16.2707, 15.0754 16.2707, 14.8383 16.2613, 14.5864 16.2419, 14.3345 16.223, 14.106 16.1762, 13.9009 16.1016, 13.6958 16.0274, 13.5415 15.9108, 13.4376 15.7525, 13.3584 15.6567, 13.3166 15.5343, 13.3116 15.3854, 13.3116 15.3135, 13.3215 15.2298, 13.3413 15.1335, 13.3957 14.9176, 13.5068 14.757, 13.6746 14.6513, 13.8429 14.5461, 14.0106 14.493, 14.1784 14.493, 14.3516 14.493, 14.4951 14.5483, 14.6085 14.6585, 14.6926 14.7404, 14.7344 14.8457, 14.7344 14.9752, 14.7344 15.0283, 14.7245 15.0904, 14.7047 15.1623, 14.6705 15.3162, 14.6062 15.4421, 14.5122 15.5402, 14.4186 15.6387, 14.3665 15.6877, 14.3566 15.6877, 14.3863 15.7021, 14.5014 15.7228, 14.7011 15.7489, 14.9013 15.7754, 15.1276 15.7885, 15.3795 15.7885, 15.5819 15.7885, 15.7785 15.7444, 15.9688 15.6553, 16.159 15.5667, 16.3358 15.443, 16.4987 15.2847, 16.6615 15.1263, 16.805 14.9464, 16.9282 14.7449, 17.0519 14.5434, 17.1433 14.3301, 17.2026 14.1043 L 17.5953 12.5641 C 17.482 12.6748, 17.2791 12.8142, 16.9876 12.982, 16.6961 13.1502, 16.3925 13.2335, 16.0758 13.2335, 15.6957 13.2335, 15.3687 13.1395, 15.0943 12.9496, 14.8199 12.7602, 14.6085 12.5164, 14.46 12.2187, 14.2823 11.8736, 14.1883 11.4994, 14.1784 11.0959 L 14.1784 11.0095 C 14.1784 10.6407, 14.2279 10.2664, 14.3269 9.88674, 14.4308 9.4648, 14.5914 9.0586, 14.8086 8.66725, 15.0264 8.27635, 15.3102 7.91019, 15.6611 7.56922, 15.9476 7.28178, 16.2724 7.04427, 16.6354 6.85714, 16.9989 6.67001, 17.3682 6.57645, 17.7438 6.57599, 18.065 6.57645, 18.3322 6.66191, 18.5445 6.83195, 18.7568 7.00243, 18.8926 7.14503, 18.9516 7.25974 L 18.9147 7.39648 C 18.9592 7.21925, 19.0492 7.08745, 19.185 7.00108, 19.3209 6.91472, 19.4581 6.87153, 19.5966 6.87108, 19.7401 6.87153, 19.8589 6.91697, 19.9524 7.00783, 20.0168 7.07081, 20.0487 7.15717, 20.0487 7.26693, 20.0487 7.32001, 20.0438 7.37309, 20.0339 7.42527 Z M 18.67 8.36092 C 18.6601 8.27005, 18.6452 8.18143, 18.6254 8.09507, 18.6056 8.0087, 18.5836 7.92233, 18.5589 7.83552, 18.4797 7.6106, 18.3672 7.42482, 18.2215 7.27818, 18.0758 7.13198, 17.8918 7.05866, 17.6696 7.05821, 17.4622 7.05866, 17.2571 7.13333, 17.0546 7.28178, 16.8522 7.43067, 16.6669 7.6178, 16.4987 7.84271, 16.2715 8.15489, 16.0988 8.48732, 15.98 8.83998, 15.8612 9.19265, 15.7501 9.55116, 15.6462 9.91553, 15.5572 10.2902, 15.4807 10.655, 15.4164 11.0095, 15.3768 11.1827, 15.357 11.3505, 15.357 11.5133, 15.357 11.6865, 15.3768 11.852, 15.4164 12.0099, 15.4609 12.2263, 15.545 12.4062, 15.6683 12.5502, 15.792 12.6941, 15.9575 12.7661, 16.1649 12.7656, 16.3925 12.7661, 16.6197 12.6883, 16.8468 12.5322, 17.0744 12.3765, 17.2868 12.1881, 17.4842 11.9667, 17.6277 11.7994, 17.7636 11.6168, 17.8918 11.4198 L 18.67 8.36092 Z" stroke="none" fill="#000000" />
			<rect />
		</svg>
	</g>
</svg>
